<svg xmlns="http://www.w3.org/2000/svg" version="1.1" xmlns:xlink="http://www.w3.org/1999/xlink" xmlns:svgjs="http://svgjs.dev/svgjs" width="1440" height="560" preserveAspectRatio="none" viewBox="0 0 1440 560">
    <g mask="url(&quot;#SvgjsMask1000&quot;)" fill="none">
        <rect width="1440" height="560" x="0" y="0" fill="#0e2a47"></rect>
        <path d="M0,439.02C79.135,420.92,149.86,382.416,212.871,331.234C270.563,284.372,306.953,221.261,345.968,157.998C390.644,85.554,449.73,18.923,457.731,-65.812C466.759,-161.424,461.375,-273.091,393.045,-340.575C324.825,-407.95,212.212,-384.299,117.878,-401.457C34.858,-416.557,-48.959,-465.336,-127.819,-435.313C-205.817,-405.619,-239.006,-316.773,-285.902,-247.736C-327.327,-186.754,-357.302,-123.448,-385.84,-55.475C-424.324,36.188,-501.797,122.803,-482.407,220.308C-462.594,319.939,-378.753,403.445,-286.235,445.39C-197.519,485.612,-94.956,460.738,0,439.02" fill="#0b2239"></path>
        <path d="M1440 1127.644C1567.211 1141.087 1710.37 1217.1779999999999 1815.609 1144.4589999999998 1921.359 1071.387 1909.978 912.038 1934.606 785.879 1954.062 686.215 1949.432 588.949 1943.846 487.558 1937.685 375.71799999999996 1974.145 245.368 1900.194 161.24 1826.225 77.09199999999998 1693.551 87.52699999999999 1582.105 76.036 1487.941 66.327 1398.215 83.99400000000003 1304.8899999999999 99.856 1198.336 117.96699999999998 1086.892 116.53699999999998 996.371 175.59300000000002 889.19 245.51799999999997 771.302 334.578 751.348 460.98699999999997 731.384 587.461 831.258 698.039 896.512 808.203 955.3399999999999 907.517 1012.65 1011.634 1112.164 1070.124 1209.791 1127.5059999999999 1327.385 1115.7440000000001 1440 1127.644" fill="#113255"></path>
    </g>
    <defs>
        <mask id="SvgjsMask1000">
            <rect width="1440" height="560" fill="#ffffff"></rect>
        </mask>
    </defs>
</svg>