<svg xmlns="http://www.w3.org/2000/svg" version="1.1" xmlns:xlink="http://www.w3.org/1999/xlink" xmlns:svgjs="http://svgjs.dev/svgjs" width="5000" height="560" preserveAspectRatio="none" viewBox="0 0 5000 560">
    <g mask="url(&quot;#SvgjsMask1063&quot;)" fill="none">
        <rect width="5000" height="560" x="0" y="0" fill="rgba(237, 224, 120, 1)"></rect>
        <path d="M0,1489.071C277.078,1480.264,513.745,1312.128,745.222,1159.588C974.265,1008.652,1278.075,877.929,1334.687,609.531C1392.185,336.934,1073.126,126.866,1020.766,-146.764C972.236,-400.376,1209.583,-706.527,1044.811,-905.334C881.03,-1102.946,551.894,-974.85,298.852,-1017.797C82.502,-1054.516,-123.583,-1199.776,-334.571,-1139.445C-545.887,-1079.02,-676.763,-876.556,-809.007,-701.008C-933.506,-535.741,-1014.816,-352.306,-1076.358,-154.757C-1148.428,76.586,-1249.908,310.378,-1197.802,547.018C-1140.451,807.48,-985.936,1043.078,-776.303,1207.951C-555.508,1381.603,-280.759,1497.995,0,1489.071" fill="#e1cc20"></path>
        <path d="M5000 1418.77C5159.675 1379.3220000000001 5325.034 1369.988 5463.415 1281.088 5601.811 1192.179 5681.427 1047.503 5781.33 916.821 5911.976 745.923 6131.072 611.029 6139.965 396.098 6148.894 180.303 5996.518-23.30600000000004 5825.696-155.47000000000003 5666.534-278.61199999999997 5445.057-241.80999999999995 5250.249-292.26800000000003 5063.574-340.62 4890.173-498.46900000000005 4704.66-445.83500000000004 4519.077-393.18100000000004 4446.149-175.163 4320.771-28.55600000000004 4196.375 116.90300000000002 4011.5969999999998 225.01100000000002 3970.9970000000003 412.052 3929.661 602.48 4041.1059999999998 784.731 4104.215 969.091 4174.558 1174.5839999999998 4167.544 1455.836 4361.658 1553.28 4560.017 1652.855 4784.529 1472.0030000000002 5000 1418.77" fill="#f9f4d0"></path>
    </g>
    <defs>
        <mask id="SvgjsMask1063">
            <rect width="5000" height="560" fill="#ffffff"></rect>
        </mask>
    </defs>
</svg>